<svg width="90" height="103" viewBox="0 0 90 103" fill="none" xmlns="http://www.w3.org/2000/svg">
<path d="M50.5346 5.16235L9.29309 46.9884L8.43494 82.3438L45.3352 102.611L85.2896 77.6074V26.7234L50.5346 5.16235Z" fill="#00376D"/>
<path fill-rule="evenodd" clip-rule="evenodd" d="M45.5371 49.9371H9.08858L8.49009 82.0627L45.5371 102.411V49.9371Z" fill="#004284"/>
<path fill-rule="evenodd" clip-rule="evenodd" d="M53.456 68.7828L53.7863 68.576L55.2861 67.6347L57.1978 66.4353V88.54V88.4017L55.8533 89.2577L55.5504 89.4506L55.2689 89.6295L52.4275 91.4391V87.5436V88.5776V69.4285L53.456 68.7828Z" stroke="#348FEC" stroke-opacity="0.3"/>
<path fill-rule="evenodd" clip-rule="evenodd" d="M78.8979 53.887L79.2282 53.6801L80.728 52.7388L82.6396 51.5394V73.6441V73.5058L81.2951 74.3618L80.9923 74.5547L80.7108 74.7336L77.8694 76.5432V72.6477V73.6817V54.5326L78.8979 53.887Z" stroke="#348FEC" stroke-opacity="0.3"/>
<path fill-rule="evenodd" clip-rule="evenodd" d="M69.2773 59.0272L70.9571 58.0742L73.0991 56.8594L72.9044 83.8909L71.2535 84.7072L70.9382 84.8891L63.5585 89.3111V62.4768L68.907 59.2369L69.2773 59.0272Z" fill="#348FEC" fill-opacity="0.3"/>
<path fill-rule="evenodd" clip-rule="evenodd" d="M34.4379 68.8095L32.608 67.6481L30.6965 66.4353V72.408L31.2173 72.7432L32.0409 73.2735L32.6252 73.6499L35.4668 75.4792V69.4623L34.4379 68.8095Z" stroke="#348FEC" stroke-opacity="0.3"/>
<path fill-rule="evenodd" clip-rule="evenodd" d="M19.0668 61.8936L17.2369 60.7322L15.3254 59.5194V65.4921L15.8462 65.8273L16.6698 66.3576L17.2541 66.734L20.0957 68.5633V62.5464L19.0668 61.8936Z" stroke="#348FEC" stroke-opacity="0.3"/>
<path fill-rule="evenodd" clip-rule="evenodd" d="M54.3319 3.65991L1.01411 52.0714V54.7314L37.3936 74.629L88.9994 25.2877V22.8117L54.3319 3.65991Z" fill="white" stroke="#004284" stroke-linecap="round" stroke-linejoin="round"/>
<path fill-rule="evenodd" clip-rule="evenodd" d="M54.3319 1L1.01411 52.0715L37.3936 71.9691L88.9994 22.6278L54.3319 1Z" fill="white" stroke="#004284" stroke-linecap="round" stroke-linejoin="round"/>
</svg>
